<svg width="89" height="85" viewBox="0 0 89 85" fill="none" xmlns="http://www.w3.org/2000/svg">
<path d="M0 0H85V85H0V0Z" fill="#41003A"/>
<path d="M63.8 15.48C65.5067 15.48 66.7867 16.04 67.64 17.16C68.5467 18.28 69 19.6667 69 21.32C69 22.3867 68.8133 23.5067 68.44 24.68C68.0667 25.8533 67.64 26.92 67.16 27.88C66.9467 28.04 66.7333 28.0933 66.52 28.04C66.36 27.9333 66.3067 27.7467 66.36 27.48C66.7333 26.52 66.92 25.5333 66.92 24.52C66.92 23.5067 66.7067 22.6 66.28 21.8C65.9067 20.9467 65.2667 20.2533 64.36 19.72C63.5067 19.1867 62.4133 18.92 61.08 18.92C59.16 18.92 57.4 19.2933 55.8 20.04C54.2 20.7333 52.7067 21.9867 51.32 23.8C49.9867 25.6133 48.7067 28.0933 47.48 31.24C46.2533 34.3333 45.0267 38.28 43.8 43.08C42.7867 46.92 41.6133 50.28 40.28 53.16C38.9467 56.04 37.4 58.4667 35.64 60.44C37.9333 61.3467 40.3333 62.1467 42.84 62.84C45.4 63.5333 48.2533 63.88 51.4 63.88C53.9067 63.88 55.96 63.4533 57.56 62.6C59.2133 61.6933 60.6533 60.0133 61.88 57.56C62.0933 57.4533 62.28 57.48 62.44 57.64C62.6 57.7467 62.6267 57.9333 62.52 58.2C61.24 61.08 59.5333 63.2667 57.4 64.76C55.2667 66.2533 52.4133 67 48.84 67C45.6933 67 42.8933 66.5467 40.44 65.64C37.9867 64.7333 35.6133 63.7467 33.32 62.68C29.7467 65.56 25.16 67 19.56 67C17.5333 67 15.9867 66.6 14.92 65.8C13.9067 64.9467 13.4 64.04 13.4 63.08C13.4 62.3867 13.5867 61.6933 13.96 61C14.3867 60.2533 14.9733 59.6133 15.72 59.08C16.52 58.4933 17.4533 58.0133 18.52 57.64C19.5867 57.2667 20.7867 57.08 22.12 57.08C24.2 57.08 26.2 57.3733 28.12 57.96C30.0933 58.5467 32.0933 59.2133 34.12 59.96C36.52 56.8667 38.6267 51.9067 40.44 45.08C41.6133 40.7067 42.9733 36.7067 44.52 33.08C46.12 29.4 47.88 26.28 49.8 23.72C51.7733 21.1067 53.9333 19.08 56.28 17.64C58.6267 16.2 61.1333 15.48 63.8 15.48ZM22.12 65.32C24.1467 65.32 25.96 65.08 27.56 64.6C29.16 64.12 30.6533 63.2933 32.04 62.12C30.1733 61.2133 28.2533 60.44 26.28 59.8C24.36 59.16 22.2267 58.84 19.88 58.84C18.3867 58.84 17.32 59.08 16.68 59.56C16.04 60.04 15.72 60.6533 15.72 61.4C15.72 62.4667 16.28 63.4 17.4 64.2C18.52 64.9467 20.0933 65.32 22.12 65.32Z" fill="#FFE1CC"/>
<path d="M67.64 17.16L66.8446 17.766L66.8535 17.7778L66.8628 17.7892L67.64 17.16ZM68.44 24.68L69.3929 24.9832V24.9832L68.44 24.68ZM67.16 27.88L67.76 28.68L67.9489 28.5384L68.0544 28.3272L67.16 27.88ZM66.52 28.04L65.9653 28.872L66.1094 28.9681L66.2775 29.0101L66.52 28.04ZM66.36 27.48L65.428 27.1176L65.3965 27.1986L65.3794 27.2839L66.36 27.48ZM66.28 21.8L65.3638 22.2008L65.3794 22.2364L65.3977 22.2706L66.28 21.8ZM64.36 19.72L63.83 20.568L63.8414 20.5751L63.853 20.5819L64.36 19.72ZM55.8 20.04L56.1976 20.9576L56.2103 20.952L56.2229 20.9462L55.8 20.04ZM51.32 23.8L50.5256 23.1925L50.5199 23.2L50.5144 23.2076L51.32 23.8ZM47.48 31.24L48.4096 31.6086L48.4117 31.6032L47.48 31.24ZM43.8 43.08L44.7669 43.3352L44.7689 43.3276L43.8 43.08ZM35.64 60.44L34.8937 59.7744L33.9403 60.8433L35.2723 61.37L35.64 60.44ZM42.84 62.84L42.5734 63.8038L42.5786 63.8052L42.84 62.84ZM57.56 62.6L58.0306 63.4824L58.0408 63.4768L57.56 62.6ZM61.88 57.56L61.4328 56.6656L61.1346 56.8146L60.9856 57.1128L61.88 57.56ZM62.44 57.64L61.7329 58.3471L61.8029 58.4171L61.8853 58.472L62.44 57.64ZM62.52 58.2L63.4338 58.6061L63.4415 58.5889L63.4485 58.5714L62.52 58.2ZM57.4 64.76L57.9735 65.5792L57.4 64.76ZM33.32 62.68L33.7417 61.7733L33.1772 61.5107L32.6925 61.9014L33.32 62.68ZM14.92 65.8L14.2759 66.5649L14.2974 66.5831L14.32 66.6L14.92 65.8ZM13.96 61L13.0918 60.5039L13.0855 60.5148L13.0795 60.5259L13.96 61ZM15.72 59.08L16.3013 59.8938L16.3114 59.8864L15.72 59.08ZM28.12 57.96L27.8278 58.9164L27.835 58.9185L28.12 57.96ZM34.12 59.96L33.7743 60.8983L34.4613 61.1514L34.9101 60.573L34.12 59.96ZM40.44 45.08L39.4742 44.8209L39.4735 44.8233L40.44 45.08ZM44.52 33.08L43.6029 32.6813L43.6002 32.6877L44.52 33.08ZM49.8 23.72L49.002 23.1174L49 23.12L49.8 23.72ZM56.28 17.64L56.803 18.4923L56.28 17.64ZM27.56 64.6L27.8473 65.5578L27.56 64.6ZM32.04 62.12L32.6859 62.8834L33.8583 61.8914L32.4769 61.2205L32.04 62.12ZM26.28 59.8L25.9638 60.7487L25.9715 60.7512L26.28 59.8ZM16.68 59.56L17.28 60.36L16.68 59.56ZM17.4 64.2L16.8188 65.0137L16.8319 65.0231L16.8453 65.0321L17.4 64.2ZM63.8 16.48C65.2685 16.48 66.2211 16.9477 66.8446 17.766L68.4354 16.554C67.3522 15.1323 65.7448 14.48 63.8 14.48V16.48ZM66.8628 17.7892C67.6044 18.7054 68 19.8602 68 21.32H70C70 19.4731 69.4889 17.8546 68.4172 16.5308L66.8628 17.7892ZM68 21.32C68 22.2693 67.8339 23.2867 67.4871 24.3768L69.3929 24.9832C69.7927 23.7266 70 22.504 70 21.32H68ZM67.4871 24.3768C67.1272 25.5077 66.7193 26.5254 66.2656 27.4328L68.0544 28.3272C68.5607 27.3146 69.0061 26.1989 69.3929 24.9832L67.4871 24.3768ZM66.56 27.08C66.5378 27.0966 66.5505 27.0816 66.5975 27.0699C66.65 27.0567 66.71 27.0567 66.7625 27.0699L66.2775 29.0101C66.8453 29.1521 67.3623 28.9782 67.76 28.68L66.56 27.08ZM67.0747 27.208C67.1272 27.2429 67.1817 27.2922 67.2287 27.3568C67.2757 27.4214 67.305 27.4873 67.3215 27.5453C67.3526 27.654 67.3334 27.7122 67.3406 27.6761L65.3794 27.2839C65.2856 27.7529 65.3288 28.4477 65.9653 28.872L67.0747 27.208ZM67.292 27.8424C67.7095 26.7688 67.92 25.6594 67.92 24.52H65.92C65.92 25.4073 65.7572 26.2712 65.428 27.1176L67.292 27.8424ZM67.92 24.52C67.92 23.3621 67.675 22.2906 67.1624 21.3294L65.3977 22.2706C65.7383 22.9094 65.92 23.6512 65.92 24.52H67.92ZM67.1962 21.3992C66.7277 20.3284 65.9307 19.4838 64.867 18.8581L63.853 20.5819C64.6026 21.0229 65.0856 21.5649 65.3638 22.2008L67.1962 21.3992ZM64.89 18.872C63.8339 18.2119 62.5413 17.92 61.08 17.92V19.92C62.2854 19.92 63.1794 20.1614 63.83 20.568L64.89 18.872ZM61.08 17.92C59.0268 17.92 57.1208 18.3201 55.3771 19.1338L56.2229 20.9462C57.6792 20.2666 59.2932 19.92 61.08 19.92V17.92ZM55.4024 19.1224C53.6048 19.9014 51.9849 21.2843 50.5256 23.1925L52.1144 24.4074C53.4285 22.689 54.7952 21.5653 56.1976 20.9576L55.4024 19.1224ZM50.5144 23.2076C49.1102 25.1172 47.7926 27.6849 46.5483 30.8768L48.4117 31.6032C49.6208 28.5017 50.8631 26.1094 52.1257 24.3924L50.5144 23.2076ZM46.5504 30.8714C45.3025 34.0182 44.0638 38.0091 42.8311 42.8324L44.7689 43.3276C45.9896 38.5509 47.2041 34.6485 48.4096 31.6086L46.5504 30.8714ZM42.8331 42.8248C41.8312 46.6216 40.676 49.9243 39.3725 52.7399L41.1875 53.5801C42.5506 50.6357 43.7422 47.2183 44.7669 43.3352L42.8331 42.8248ZM39.3725 52.7399C38.0726 55.5478 36.5766 57.8875 34.8937 59.7744L36.3863 61.1056C38.2234 59.0459 39.8208 56.5322 41.1875 53.5801L39.3725 52.7399ZM35.2723 61.37C37.6005 62.2904 40.0343 63.1015 42.5734 63.8038L43.1066 61.8762C40.6323 61.1918 38.2662 60.4029 36.0077 59.51L35.2723 61.37ZM42.5786 63.8052C45.2379 64.5255 48.1809 64.88 51.4 64.88V62.88C48.3257 62.88 45.5621 62.5412 43.1014 61.8748L42.5786 63.8052ZM51.4 64.88C54.0113 64.88 56.241 64.4368 58.0306 63.4824L57.0894 61.7176C55.679 62.4699 53.802 62.88 51.4 62.88V64.88ZM58.0408 63.4768C59.9367 62.4371 61.4962 60.5636 62.7744 58.0072L60.9856 57.1128C59.8105 59.463 58.49 60.9495 57.0792 61.7232L58.0408 63.4768ZM62.3272 58.4544C62.3002 58.4679 62.1941 58.5122 62.0386 58.4899C61.8775 58.4669 61.7744 58.3886 61.7329 58.3471L63.1471 56.9329C62.9456 56.7314 62.6692 56.5597 62.3214 56.5101C61.9792 56.4612 61.6731 56.5454 61.4328 56.6656L62.3272 58.4544ZM61.8853 58.472C61.8219 58.4298 61.7503 58.3646 61.6913 58.2719C61.6321 58.1788 61.6018 58.0834 61.5901 58.0014C61.5689 57.8536 61.6111 57.7796 61.5915 57.8286L63.4485 58.5714C63.5356 58.3537 63.6177 58.0531 63.57 57.7186C63.5155 57.3373 63.3061 57.0155 62.9947 56.8079L61.8853 58.472ZM61.6062 57.7939C60.3844 60.5428 58.7825 62.5716 56.8265 63.9408L57.9735 65.5792C60.2842 63.9617 62.0956 61.6172 63.4338 58.6061L61.6062 57.7939ZM56.8265 63.9408C54.9134 65.2799 52.2826 66 48.84 66V68C52.544 68 55.6199 67.2267 57.9735 65.5792L56.8265 63.9408ZM48.84 66C45.7883 66 43.109 65.5603 40.7867 64.702L40.0934 66.578C42.6776 67.5331 45.5984 68 48.84 68V66ZM40.7867 64.702C38.3579 63.8044 36.0097 62.8281 33.7417 61.7733L32.8983 63.5867C35.217 64.6652 37.6154 65.6622 40.0934 66.578L40.7867 64.702ZM32.6925 61.9014C29.3335 64.6086 24.9836 66 19.56 66V68C25.3364 68 30.1598 66.5114 33.9475 63.4586L32.6925 61.9014ZM19.56 66C17.6433 66 16.3444 65.6183 15.52 65L14.32 66.6C15.629 67.5817 17.4233 68 19.56 68V66ZM15.5641 65.0351C14.6865 64.296 14.4 63.6448 14.4 63.08H12.4C12.4 64.4352 13.1269 65.5973 14.2759 66.5649L15.5641 65.0351ZM14.4 63.08C14.4 62.5735 14.5348 62.0417 14.8405 61.4741L13.0795 60.5259C12.6385 61.3449 12.4 62.1998 12.4 63.08H14.4ZM14.8282 61.4961C15.1786 60.8831 15.664 60.3489 16.3012 59.8937L15.1388 58.2663C14.2826 58.8778 13.5948 59.6236 13.0918 60.5039L14.8282 61.4961ZM16.3114 59.8864C17.0214 59.3657 17.8643 58.929 18.8504 58.5839L18.1897 56.6961C17.0424 57.0977 16.0186 57.621 15.1286 58.2736L16.3114 59.8864ZM18.8504 58.5839C19.7937 58.2537 20.8794 58.08 22.12 58.08V56.08C20.6939 56.08 19.3796 56.2796 18.1897 56.6961L18.8504 58.5839ZM22.12 58.08C24.1046 58.08 26.0059 58.3597 27.8278 58.9164L28.4122 57.0036C26.3941 56.387 24.2954 56.08 22.12 56.08V58.08ZM27.835 58.9185C29.7869 59.4988 31.7667 60.1587 33.7743 60.8983L34.4657 59.0217C32.42 58.268 30.3997 57.5945 28.405 57.0015L27.835 58.9185ZM34.9101 60.573C37.4336 57.3204 39.582 52.2055 41.4065 45.3367L39.4735 44.8233C37.6714 51.6079 35.6064 56.4129 33.3299 59.347L34.9101 60.573ZM41.4058 45.3391C42.5687 41.0047 43.9141 37.0499 45.4398 33.4723L43.6002 32.6877C42.0326 36.3634 40.6579 40.4086 39.4742 44.8209L41.4058 45.3391ZM45.4371 33.4787C47.0135 29.853 48.7368 26.8043 50.6 24.32L49 23.12C47.0232 25.7557 45.2265 28.947 43.6029 32.6813L45.4371 33.4787ZM50.598 24.3226C52.51 21.7905 54.5809 19.8559 56.803 18.4923L55.757 16.7877C53.2858 18.3041 51.0366 20.4228 49.002 23.1174L50.598 24.3226ZM56.803 18.4923C58.9977 17.1456 61.3242 16.48 63.8 16.48V14.48C60.9425 14.48 58.2556 15.2544 55.757 16.7877L56.803 18.4923ZM22.12 66.32C24.224 66.32 26.1368 66.071 27.8473 65.5578L27.2727 63.6422C25.7832 64.089 24.0693 64.32 22.12 64.32V66.32ZM27.8473 65.5578C29.5901 65.035 31.2036 64.1376 32.6859 62.8834L31.3941 61.3566C30.103 62.449 28.7299 63.205 27.2727 63.6422L27.8473 65.5578ZM32.4769 61.2205C30.5687 60.2936 28.6058 59.503 26.5885 58.8488L25.9715 60.7512C27.9009 61.377 29.778 62.133 31.6031 63.0195L32.4769 61.2205ZM26.5962 58.8513C24.5595 58.1724 22.3174 57.84 19.88 57.84V59.84C22.136 59.84 24.1605 60.1476 25.9638 60.7487L26.5962 58.8513ZM19.88 57.84C18.3325 57.84 16.9888 58.0784 16.08 58.76L17.28 60.36C17.6512 60.0816 18.4409 59.84 19.88 59.84V57.84ZM16.08 58.76C15.2091 59.4132 14.72 60.3133 14.72 61.4H16.72C16.72 60.9933 16.8709 60.6668 17.28 60.36L16.08 58.76ZM14.72 61.4C14.72 62.8811 15.5204 64.0864 16.8188 65.0137L17.9812 63.3863C17.0396 62.7136 16.72 62.0523 16.72 61.4H14.72ZM16.8453 65.0321C18.1931 65.9306 19.9894 66.32 22.12 66.32V64.32C20.1972 64.32 18.8469 63.9627 17.9547 63.368L16.8453 65.0321Z" fill="#FFE1CC"/>
</svg>
